<?xml version="1.0" encoding="utf-8"?>
<!-- Generator: Adobe Illustrator 23.0.4, SVG Export Plug-In . SVG Version: 6.00 Build 0)  -->
<svg version="1.1" id="Layer_1" xmlns="http://www.w3.org/2000/svg" xmlns:xlink="http://www.w3.org/1999/xlink" x="0px" y="0px"
	 viewBox="0 0 500 500" style="enable-background:new 0 0 500 500;" xml:space="preserve">
<style type="text/css">
	.st0{fill:#004F73;}
	.st1{fill:url(#SVGID_1_);}
	.st2{fill:url(#SVGID_2_);}
	.st3{fill:url(#SVGID_3_);}
	.st4{fill:url(#SVGID_4_);}
	.st5{fill:url(#SVGID_5_);}
	.st6{fill:url(#SVGID_6_);}
	.st7{fill:url(#SVGID_7_);}
	.st8{fill:url(#SVGID_8_);}
	.st9{fill:url(#SVGID_9_);}
	.st10{fill:url(#SVGID_10_);}
	.st11{fill:url(#SVGID_11_);}
	.st12{fill:url(#SVGID_12_);}
	.st13{fill:url(#SVGID_13_);}
	.st14{fill:url(#SVGID_14_);}
	.st15{fill:url(#SVGID_15_);}
	.st16{fill:url(#SVGID_16_);}
	.st17{fill:url(#SVGID_17_);}
	.st18{fill:url(#SVGID_18_);}
	.st19{fill:url(#SVGID_19_);}
	.st20{fill:url(#SVGID_20_);}
	.st21{fill:url(#SVGID_21_);}
	.st22{fill:url(#SVGID_22_);}
	.st23{fill:url(#SVGID_23_);}
	.st24{fill:url(#SVGID_24_);}
	.st25{fill:url(#SVGID_25_);}
	.st26{fill:url(#SVGID_26_);}
	.st27{fill:url(#SVGID_27_);}
	.st28{fill:url(#SVGID_28_);}
	.st29{fill:url(#SVGID_29_);}
	.st30{fill:url(#SVGID_30_);}
	.st31{opacity:0.25;fill:#4A0009;}
	.st32{opacity:0.2;fill:#4A0009;}
	.st33{opacity:0.4;fill:#4A0009;}
	.st34{opacity:0.58;fill:#4A0009;}
	.st35{opacity:0.75;fill:#4A0009;}
	.st36{opacity:0.46;fill:#4A0009;}
	.st37{opacity:0.99;fill:#4A0009;}
	.st38{opacity:0.5;fill:#4A0009;}
	.st39{opacity:0.56;fill:#4A0009;}
	.st40{opacity:0.05;fill:#4A0009;}
	.st41{opacity:0.98;fill:#4A0009;}
	.st42{opacity:0.93;fill:#4A0009;}
	.st43{opacity:0.09;fill:#4A0009;}
	.st44{opacity:0.66;fill:#4A0009;}
	.st45{opacity:0.08;fill:#4A0009;}
	.st46{opacity:0.97;fill:#4A0009;}
	.st47{opacity:0.13;fill:#4A0009;}
	.st48{opacity:0.29;fill:#4A0009;}
	.st49{opacity:0.62;fill:#4A0009;}
	.st50{opacity:0.43;fill:#4A0009;}
	.st51{opacity:0.36;fill:#4A0009;}
	.st52{opacity:0.14;fill:#4A0009;}
	.st53{opacity:0.48;fill:#260404;}
	.st54{opacity:0.54;fill:#260404;}
	.st55{opacity:0.6;fill:#260404;}
	.st56{opacity:0.34;fill:#260404;}
	.st57{opacity:0.26;fill:#260404;}
	.st58{opacity:0.12;fill:#260404;}
	.st59{opacity:0.58;fill:#260404;}
	.st60{opacity:0.51;fill:#260404;}
	.st61{opacity:0.28;fill:#260404;}
	.st62{opacity:0.25;fill:#260404;}
	.st63{opacity:0.19;fill:#260404;}
	.st64{opacity:0.05;fill:#260404;}
	.st65{opacity:0.32;fill:#260404;}
	.st66{opacity:0.22;fill:#260404;}
	.st67{opacity:0.38;fill:#260404;}
	.st68{opacity:0.35;fill:#260404;}
	.st69{opacity:0.29;fill:#260404;}
	.st70{opacity:0.1;fill:#260404;}
	.st71{opacity:0.33;fill:#260404;}
	.st72{opacity:0.15;fill:#260404;}
	.st73{opacity:0.46;fill:#260404;}
	.st74{opacity:0.42;fill:#260404;}
	.st75{opacity:0.11;fill:#260404;}
	.st76{opacity:0.07;fill:#260404;}
	.st77{opacity:0.18;fill:#260404;}
	.st78{opacity:0.3;fill:#260404;}
	.st79{opacity:0.24;fill:#260404;}
	.st80{opacity:0.59;fill:#260404;}
	.st81{opacity:0.41;fill:#260404;}
	.st82{opacity:0.39;fill:#260404;}
	.st83{opacity:0.57;fill:#260404;}
	.st84{opacity:0.27;fill:#260404;}
	.st85{opacity:0.23;fill:#260404;}
	.st86{opacity:0.16;fill:#260404;}
	.st87{opacity:0.14;fill:#260404;}
	.st88{opacity:0.2;fill:#260404;}
	.st89{opacity:0.09;fill:#260404;}
	.st90{fill:none;}
	.st91{opacity:0.0333;fill:none;stroke:#DEDEDE;stroke-width:0.0699;stroke-linecap:round;stroke-linejoin:round;}
	.st92{opacity:0.0667;fill:none;stroke:#DEDEDE;stroke-width:0.0699;stroke-linecap:round;stroke-linejoin:round;}
	.st93{opacity:0.1;fill:none;stroke:#DEDEDE;stroke-width:0.0699;stroke-linecap:round;stroke-linejoin:round;}
	.st94{opacity:0.1333;fill:none;stroke:#DEDEDE;stroke-width:0.0699;stroke-linecap:round;stroke-linejoin:round;}
	.st95{opacity:0.1667;fill:none;stroke:#DEDEDE;stroke-width:0.0699;stroke-linecap:round;stroke-linejoin:round;}
	.st96{opacity:0.2;fill:none;stroke:#DEDEDE;stroke-width:0.0699;stroke-linecap:round;stroke-linejoin:round;}
	.st97{opacity:0.2333;fill:none;stroke:#DEDEDE;stroke-width:0.0699;stroke-linecap:round;stroke-linejoin:round;}
	.st98{opacity:0.2667;fill:none;stroke:#DEDEDE;stroke-width:0.0699;stroke-linecap:round;stroke-linejoin:round;}
	.st99{opacity:0.3;fill:none;stroke:#DEDEDE;stroke-width:0.0699;stroke-linecap:round;stroke-linejoin:round;}
	.st100{opacity:0.3333;fill:none;stroke:#DEDEDE;stroke-width:0.0699;stroke-linecap:round;stroke-linejoin:round;}
	.st101{opacity:0.3667;fill:none;stroke:#DEDEDE;stroke-width:0.0699;stroke-linecap:round;stroke-linejoin:round;}
	.st102{opacity:0.4;fill:none;stroke:#DEDEDE;stroke-width:0.0699;stroke-linecap:round;stroke-linejoin:round;}
	.st103{opacity:0.4333;fill:none;stroke:#DEDEDE;stroke-width:0.0699;stroke-linecap:round;stroke-linejoin:round;}
	.st104{opacity:0.4667;fill:none;stroke:#DEDEDE;stroke-width:0.0699;stroke-linecap:round;stroke-linejoin:round;}
	.st105{opacity:0.5;fill:none;stroke:#DEDEDE;stroke-width:0.0699;stroke-linecap:round;stroke-linejoin:round;}
	.st106{opacity:0.5333;fill:none;stroke:#DEDEDE;stroke-width:0.0699;stroke-linecap:round;stroke-linejoin:round;}
	.st107{opacity:0.5667;fill:none;stroke:#DEDEDE;stroke-width:0.0699;stroke-linecap:round;stroke-linejoin:round;}
	.st108{opacity:0.6;fill:none;stroke:#DEDEDE;stroke-width:0.0699;stroke-linecap:round;stroke-linejoin:round;}
	.st109{opacity:0.6333;fill:none;stroke:#DEDEDE;stroke-width:0.0699;stroke-linecap:round;stroke-linejoin:round;}
	.st110{opacity:0.6667;fill:none;stroke:#DEDEDE;stroke-width:0.0699;stroke-linecap:round;stroke-linejoin:round;}
	.st111{opacity:0.7;fill:none;stroke:#DEDEDE;stroke-width:0.0699;stroke-linecap:round;stroke-linejoin:round;}
	.st112{opacity:0.7333;fill:none;stroke:#DEDEDE;stroke-width:0.0699;stroke-linecap:round;stroke-linejoin:round;}
	.st113{opacity:0.7667;fill:none;stroke:#DEDEDE;stroke-width:0.0699;stroke-linecap:round;stroke-linejoin:round;}
	.st114{opacity:0.8;fill:none;stroke:#DEDEDE;stroke-width:0.0699;stroke-linecap:round;stroke-linejoin:round;}
	.st115{opacity:0.8333;fill:none;stroke:#DEDEDE;stroke-width:0.0699;stroke-linecap:round;stroke-linejoin:round;}
	.st116{opacity:0.8667;fill:none;stroke:#DEDEDE;stroke-width:0.0699;stroke-linecap:round;stroke-linejoin:round;}
	.st117{opacity:0.9;fill:none;stroke:#DEDEDE;stroke-width:0.0699;stroke-linecap:round;stroke-linejoin:round;}
	.st118{opacity:0.9333;fill:none;stroke:#DEDEDE;stroke-width:0.0699;stroke-linecap:round;stroke-linejoin:round;}
	.st119{opacity:0.9667;fill:none;stroke:#DEDEDE;stroke-width:0.0699;stroke-linecap:round;stroke-linejoin:round;}
	.st120{fill:none;stroke:#DEDEDE;stroke-width:0.0699;stroke-linecap:round;stroke-linejoin:round;}
	.st121{opacity:0.0333;fill:none;stroke:#FFFFFF;stroke-width:0.06;stroke-linecap:round;stroke-linejoin:round;}
	.st122{opacity:0.0667;fill:none;stroke:#FFFFFF;stroke-width:0.06;stroke-linecap:round;stroke-linejoin:round;}
	.st123{opacity:0.1;fill:none;stroke:#FFFFFF;stroke-width:0.06;stroke-linecap:round;stroke-linejoin:round;}
	.st124{opacity:0.1333;fill:none;stroke:#FFFFFF;stroke-width:0.06;stroke-linecap:round;stroke-linejoin:round;}
	.st125{opacity:0.1667;fill:none;stroke:#FFFFFF;stroke-width:0.06;stroke-linecap:round;stroke-linejoin:round;}
</style>
<g>
	<polygon class="st0" points="309.92,96.04 207.83,93.97 130.83,108.42 80.86,184.33 79.07,204.51 244.14,418.95 419.52,189.01 
		364.07,112.89 	"/>
	<g>
		
			<linearGradient id="SVGID_1_" gradientUnits="userSpaceOnUse" x1="235.8495" y1="3415.9463" x2="334.5706" y2="3415.9463" gradientTransform="matrix(0.8426 -0.5386 0.5386 0.8426 -1872.5706 -2528.6211)">
			<stop  offset="4.310340e-03" style="stop-color:#474747"/>
			<stop  offset="0.1" style="stop-color:#383838"/>
			<stop  offset="0.302" style="stop-color:#202020"/>
			<stop  offset="0.5134" style="stop-color:#0E0E0E"/>
			<stop  offset="0.7384" style="stop-color:#030303"/>
			<stop  offset="1" style="stop-color:#000000"/>
		</linearGradient>
		<polygon class="st1" points="280.72,218.82 184.02,141.56 162.68,217.45 		"/>
		
			<linearGradient id="SVGID_2_" gradientUnits="userSpaceOnUse" x1="-560.4938" y1="5281.877" x2="-506.5142" y2="5281.877" gradientTransform="matrix(0.5995 -0.8003 0.8003 0.5995 -3659.8545 -3433.3132)">
			<stop  offset="4.310340e-03" style="stop-color:#474747"/>
			<stop  offset="0.1" style="stop-color:#383838"/>
			<stop  offset="0.302" style="stop-color:#202020"/>
			<stop  offset="0.5134" style="stop-color:#0E0E0E"/>
			<stop  offset="0.7384" style="stop-color:#030303"/>
			<stop  offset="1" style="stop-color:#000000"/>
		</linearGradient>
		<polygon class="st2" points="280.72,218.82 269.55,143.01 184.02,141.56 		"/>
		
			<linearGradient id="SVGID_3_" gradientUnits="userSpaceOnUse" x1="-478.9366" y1="5234.9209" x2="-406.7932" y2="5234.9209" gradientTransform="matrix(0.6178 -0.7863 0.7863 0.6178 -3532.0764 -3385.9832)">
			<stop  offset="4.310340e-03" style="stop-color:#474747"/>
			<stop  offset="0.1" style="stop-color:#383838"/>
			<stop  offset="0.302" style="stop-color:#202020"/>
			<stop  offset="0.5134" style="stop-color:#0E0E0E"/>
			<stop  offset="0.7384" style="stop-color:#030303"/>
			<stop  offset="1" style="stop-color:#000000"/>
		</linearGradient>
		<polygon class="st3" points="384.1,208.3 269.55,143.01 280.72,218.82 		"/>
		
			<linearGradient id="SVGID_4_" gradientUnits="userSpaceOnUse" x1="-1445.9423" y1="6284.0161" x2="-1374.0476" y2="6284.0161" gradientTransform="matrix(0.3979 -0.9174 0.9174 0.3979 -4940.5337 -3657.1387)">
			<stop  offset="4.310340e-03" style="stop-color:#474747"/>
			<stop  offset="0.1" style="stop-color:#383838"/>
			<stop  offset="0.302" style="stop-color:#202020"/>
			<stop  offset="0.5134" style="stop-color:#0E0E0E"/>
			<stop  offset="0.7384" style="stop-color:#030303"/>
			<stop  offset="1" style="stop-color:#000000"/>
		</linearGradient>
		<polygon class="st4" points="269.55,143.01 342.75,132.04 184.02,141.56 		"/>
		
			<linearGradient id="SVGID_5_" gradientUnits="userSpaceOnUse" x1="-9376.0771" y1="6169.6382" x2="-9244.2568" y2="6169.6382" gradientTransform="matrix(-0.879 -0.4768 0.4768 -0.879 -10787.8789 1140.0999)">
			<stop  offset="4.310340e-03" style="stop-color:#474747"/>
			<stop  offset="0.1" style="stop-color:#383838"/>
			<stop  offset="0.302" style="stop-color:#202020"/>
			<stop  offset="0.5134" style="stop-color:#0E0E0E"/>
			<stop  offset="0.7384" style="stop-color:#030303"/>
			<stop  offset="1" style="stop-color:#000000"/>
		</linearGradient>
		<polygon class="st5" points="384.1,208.3 342.75,132.04 269.55,143.01 		"/>
		
			<linearGradient id="SVGID_6_" gradientUnits="userSpaceOnUse" x1="-11132.7969" y1="1580.217" x2="-10932.7871" y2="1580.217" gradientTransform="matrix(-0.9291 0.3697 -0.3697 -0.9291 -9432.0059 5677.1152)">
			<stop  offset="4.310340e-03" style="stop-color:#474747"/>
			<stop  offset="0.1" style="stop-color:#383838"/>
			<stop  offset="0.302" style="stop-color:#202020"/>
			<stop  offset="0.5134" style="stop-color:#0E0E0E"/>
			<stop  offset="0.7384" style="stop-color:#030303"/>
			<stop  offset="1" style="stop-color:#000000"/>
		</linearGradient>
		<polygon class="st6" points="184.02,141.56 342.75,132.04 125.96,128.18 		"/>
		
			<linearGradient id="SVGID_7_" gradientUnits="userSpaceOnUse" x1="-1246.0214" y1="5936.813" x2="-1168.8059" y2="5936.813" gradientTransform="matrix(0.4593 -0.8883 0.8883 0.4593 -4571.3911 -3633.0723)">
			<stop  offset="4.310340e-03" style="stop-color:#474747"/>
			<stop  offset="0.1" style="stop-color:#383838"/>
			<stop  offset="0.302" style="stop-color:#202020"/>
			<stop  offset="0.5134" style="stop-color:#0E0E0E"/>
			<stop  offset="0.7384" style="stop-color:#030303"/>
			<stop  offset="1" style="stop-color:#000000"/>
		</linearGradient>
		<polygon class="st7" points="162.68,217.45 184.02,141.56 125.96,128.18 		"/>
		
			<linearGradient id="SVGID_8_" gradientUnits="userSpaceOnUse" x1="-9901.1816" y1="5300.1846" x2="-9817.709" y2="5300.1846" gradientTransform="matrix(-0.9501 -0.3119 0.3119 -0.9501 -10888.2705 2136.6731)">
			<stop  offset="4.310340e-03" style="stop-color:#474747"/>
			<stop  offset="0.1" style="stop-color:#383838"/>
			<stop  offset="0.302" style="stop-color:#202020"/>
			<stop  offset="0.5134" style="stop-color:#0E0E0E"/>
			<stop  offset="0.7384" style="stop-color:#030303"/>
			<stop  offset="1" style="stop-color:#000000"/>
		</linearGradient>
		<polygon class="st8" points="162.68,217.45 125.96,128.18 79.07,204.51 		"/>
		
			<linearGradient id="SVGID_9_" gradientUnits="userSpaceOnUse" x1="-7881.4058" y1="-3128.1091" x2="-7696.167" y2="-3128.1091" gradientTransform="matrix(-0.1655 0.9862 -0.9862 -0.1655 -4212.2905 7474.7998)">
			<stop  offset="4.310340e-03" style="stop-color:#474747"/>
			<stop  offset="0.1" style="stop-color:#383838"/>
			<stop  offset="0.302" style="stop-color:#202020"/>
			<stop  offset="0.5134" style="stop-color:#0E0E0E"/>
			<stop  offset="0.7384" style="stop-color:#030303"/>
			<stop  offset="1" style="stop-color:#000000"/>
		</linearGradient>
		<polygon class="st9" points="244.14,418.95 162.68,217.45 79.07,204.51 		"/>
		
			<linearGradient id="SVGID_10_" gradientUnits="userSpaceOnUse" x1="-4761.4805" y1="7665.4092" x2="-4548.4507" y2="7665.4092" gradientTransform="matrix(-0.1836 -0.983 0.983 -0.1836 -8150.6064 -2856.9351)">
			<stop  offset="4.310340e-03" style="stop-color:#474747"/>
			<stop  offset="0.1" style="stop-color:#383838"/>
			<stop  offset="0.302" style="stop-color:#202020"/>
			<stop  offset="0.5134" style="stop-color:#0E0E0E"/>
			<stop  offset="0.7384" style="stop-color:#030303"/>
			<stop  offset="1" style="stop-color:#000000"/>
		</linearGradient>
		<polygon class="st10" points="244.14,418.95 280.72,218.82 162.68,217.45 		"/>
		
			<linearGradient id="SVGID_11_" gradientUnits="userSpaceOnUse" x1="-4419.7979" y1="7683.3047" x2="-4225.8833" y2="7683.3047" gradientTransform="matrix(-0.1262 -0.992 0.992 -0.1262 -7853.4263 -3006.2944)">
			<stop  offset="4.310340e-03" style="stop-color:#474747"/>
			<stop  offset="0.1" style="stop-color:#383838"/>
			<stop  offset="0.302" style="stop-color:#202020"/>
			<stop  offset="0.5134" style="stop-color:#0E0E0E"/>
			<stop  offset="0.7384" style="stop-color:#030303"/>
			<stop  offset="1" style="stop-color:#000000"/>
		</linearGradient>
		<polygon class="st11" points="244.14,418.95 384.1,208.3 280.72,218.82 		"/>
		
			<linearGradient id="SVGID_12_" gradientUnits="userSpaceOnUse" x1="-7504.811" y1="7292.2568" x2="-7349.8931" y2="7292.2568" gradientTransform="matrix(-0.6459 -0.7634 0.7634 -0.6459 -10133.7393 -834.4201)">
			<stop  offset="4.310340e-03" style="stop-color:#474747"/>
			<stop  offset="0.1" style="stop-color:#383838"/>
			<stop  offset="0.302" style="stop-color:#202020"/>
			<stop  offset="0.5134" style="stop-color:#0E0E0E"/>
			<stop  offset="0.7384" style="stop-color:#030303"/>
			<stop  offset="1" style="stop-color:#000000"/>
		</linearGradient>
		<polygon class="st12" points="125.96,128.18 342.75,132.04 130.83,108.42 		"/>
		
			<linearGradient id="SVGID_13_" gradientUnits="userSpaceOnUse" x1="-10674.0781" y1="63.4123" x2="-10574.4326" y2="63.4123" gradientTransform="matrix(-0.7921 0.6104 -0.6104 -0.7921 -8271.8164 6691.7378)">
			<stop  offset="4.310340e-03" style="stop-color:#474747"/>
			<stop  offset="0.1" style="stop-color:#383838"/>
			<stop  offset="0.302" style="stop-color:#202020"/>
			<stop  offset="0.5134" style="stop-color:#0E0E0E"/>
			<stop  offset="0.7384" style="stop-color:#030303"/>
			<stop  offset="1" style="stop-color:#000000"/>
		</linearGradient>
		<polygon class="st13" points="79.07,204.51 125.96,128.18 130.83,108.42 		"/>
		
			<linearGradient id="SVGID_14_" gradientUnits="userSpaceOnUse" x1="-1552.6083" y1="-2532.8708" x2="-1534.012" y2="-2532.8708" gradientTransform="matrix(0.8293 0.5588 -0.5588 0.8293 195.6455 3266.4297)">
			<stop  offset="4.310340e-03" style="stop-color:#474747"/>
			<stop  offset="0.1" style="stop-color:#383838"/>
			<stop  offset="0.302" style="stop-color:#202020"/>
			<stop  offset="0.5134" style="stop-color:#0E0E0E"/>
			<stop  offset="0.7384" style="stop-color:#030303"/>
			<stop  offset="1" style="stop-color:#000000"/>
		</linearGradient>
		<polygon class="st14" points="244.14,418.95 419.52,189.01 384.1,208.3 		"/>
		
			<linearGradient id="SVGID_15_" gradientUnits="userSpaceOnUse" x1="-3246.5723" y1="7471.104" x2="-3172.3774" y2="7471.104" gradientTransform="matrix(0.0477 -0.9989 0.9989 0.0477 -6929.1602 -3391.3257)">
			<stop  offset="4.310340e-03" style="stop-color:#474747"/>
			<stop  offset="0.1" style="stop-color:#383838"/>
			<stop  offset="0.302" style="stop-color:#202020"/>
			<stop  offset="0.5134" style="stop-color:#0E0E0E"/>
			<stop  offset="0.7384" style="stop-color:#030303"/>
			<stop  offset="1" style="stop-color:#000000"/>
		</linearGradient>
		<polygon class="st15" points="419.52,189.01 342.75,132.04 384.1,208.3 		"/>
		
			<linearGradient id="SVGID_16_" gradientUnits="userSpaceOnUse" x1="-458.3091" y1="5385.9771" x2="-430.2112" y2="5385.9771" gradientTransform="matrix(0.5974 -0.8019 0.8019 0.5974 -3664.1421 -3424.5046)">
			<stop  offset="4.310340e-03" style="stop-color:#474747"/>
			<stop  offset="0.1" style="stop-color:#383838"/>
			<stop  offset="0.302" style="stop-color:#202020"/>
			<stop  offset="0.5134" style="stop-color:#0E0E0E"/>
			<stop  offset="0.7384" style="stop-color:#030303"/>
			<stop  offset="1" style="stop-color:#000000"/>
		</linearGradient>
		<polygon class="st16" points="419.52,189.01 364.07,112.89 342.75,132.04 		"/>
		
			<linearGradient id="SVGID_17_" gradientUnits="userSpaceOnUse" x1="-6081.46" y1="7551.3325" x2="-6018.0425" y2="7551.3325" gradientTransform="matrix(-0.441 -0.8975 0.8975 -0.441 -9340.3125 -1943.0503)">
			<stop  offset="4.310340e-03" style="stop-color:#474747"/>
			<stop  offset="0.1" style="stop-color:#383838"/>
			<stop  offset="0.302" style="stop-color:#202020"/>
			<stop  offset="0.5134" style="stop-color:#0E0E0E"/>
			<stop  offset="0.7384" style="stop-color:#030303"/>
			<stop  offset="1" style="stop-color:#000000"/>
		</linearGradient>
		<polygon class="st17" points="79.07,204.51 130.83,108.42 80.86,184.33 		"/>
		
			<linearGradient id="SVGID_18_" gradientUnits="userSpaceOnUse" x1="-9042.3203" y1="6309.8926" x2="-8777.2529" y2="6309.8926" gradientTransform="matrix(-0.8369 -0.5474 0.5474 -0.8369 -10748.1338 705.17)">
			<stop  offset="4.310340e-03" style="stop-color:#474747"/>
			<stop  offset="0.1" style="stop-color:#383838"/>
			<stop  offset="0.302" style="stop-color:#202020"/>
			<stop  offset="0.5134" style="stop-color:#0E0E0E"/>
			<stop  offset="0.7384" style="stop-color:#030303"/>
			<stop  offset="1" style="stop-color:#000000"/>
		</linearGradient>
		<polygon class="st18" points="244.14,418.95 79.07,204.51 80.86,184.33 		"/>
		
			<linearGradient id="SVGID_19_" gradientUnits="userSpaceOnUse" x1="-11021.9697" y1="738.0657" x2="-10983.3633" y2="738.0657" gradientTransform="matrix(-0.8676 0.4972 -0.4972 -0.8676 -8840.4551 6217.9434)">
			<stop  offset="4.310340e-03" style="stop-color:#474747"/>
			<stop  offset="0.1" style="stop-color:#383838"/>
			<stop  offset="0.302" style="stop-color:#202020"/>
			<stop  offset="0.5134" style="stop-color:#0E0E0E"/>
			<stop  offset="0.7384" style="stop-color:#030303"/>
			<stop  offset="1" style="stop-color:#000000"/>
		</linearGradient>
		<polygon class="st19" points="309.92,96.04 342.75,132.04 364.07,112.89 		"/>
		
			<linearGradient id="SVGID_20_" gradientUnits="userSpaceOnUse" x1="-11124.624" y1="2331.9341" x2="-11003.25" y2="2331.9341" gradientTransform="matrix(-0.9691 0.2465 -0.2465 -0.9691 -9871.9502 5100.1411)">
			<stop  offset="4.310340e-03" style="stop-color:#474747"/>
			<stop  offset="0.1" style="stop-color:#383838"/>
			<stop  offset="0.302" style="stop-color:#202020"/>
			<stop  offset="0.5134" style="stop-color:#0E0E0E"/>
			<stop  offset="0.7384" style="stop-color:#030303"/>
			<stop  offset="1" style="stop-color:#000000"/>
		</linearGradient>
		<polygon class="st20" points="207.83,93.97 342.75,132.04 309.92,96.04 		"/>
		
			<linearGradient id="SVGID_21_" gradientUnits="userSpaceOnUse" x1="-10893.1699" y1="3653.7341" x2="-10681.6865" y2="3653.7341" gradientTransform="matrix(-0.9998 0.0176 -0.0176 -0.9998 -10484.2939 3956.5452)">
			<stop  offset="4.310340e-03" style="stop-color:#474747"/>
			<stop  offset="0.1" style="stop-color:#383838"/>
			<stop  offset="0.302" style="stop-color:#202020"/>
			<stop  offset="0.5134" style="stop-color:#0E0E0E"/>
			<stop  offset="0.7384" style="stop-color:#030303"/>
			<stop  offset="1" style="stop-color:#000000"/>
		</linearGradient>
		<polygon class="st21" points="130.83,108.42 342.75,132.04 207.83,93.97 		"/>
		
			<linearGradient id="SVGID_22_" gradientUnits="userSpaceOnUse" x1="-9342.6992" y1="-2130.0813" x2="-9205.5547" y2="-2130.0813" gradientTransform="matrix(-0.4417 0.8972 -0.8972 -0.4417 -5863.1445 7519.0361)">
			<stop  offset="4.310340e-03" style="stop-color:#474747"/>
			<stop  offset="0.1" style="stop-color:#383838"/>
			<stop  offset="0.302" style="stop-color:#202020"/>
			<stop  offset="0.5134" style="stop-color:#0E0E0E"/>
			<stop  offset="0.7384" style="stop-color:#030303"/>
			<stop  offset="1" style="stop-color:#000000"/>
		</linearGradient>
		<polygon class="st22" points="80.86,184.33 130.83,108.42 207.83,93.97 		"/>
		
			<linearGradient id="SVGID_23_" gradientUnits="userSpaceOnUse" x1="-1667.4669" y1="-2684.0178" x2="-1597.2495" y2="-2684.0178" gradientTransform="matrix(0.8291 0.5591 -0.5591 0.8291 184.3054 3264.7268)">
			<stop  offset="4.310340e-03" style="stop-color:#474747"/>
			<stop  offset="0.1" style="stop-color:#383838"/>
			<stop  offset="0.302" style="stop-color:#202020"/>
			<stop  offset="0.5134" style="stop-color:#0E0E0E"/>
			<stop  offset="0.7384" style="stop-color:#030303"/>
			<stop  offset="1" style="stop-color:#000000"/>
		</linearGradient>
		<polygon class="st23" points="344.07,170.99 309.92,96.04 364.07,112.89 		"/>
		
			<linearGradient id="SVGID_24_" gradientUnits="userSpaceOnUse" x1="-9277.2324" y1="6170.7886" x2="-9202.874" y2="6170.7886" gradientTransform="matrix(-0.8662 -0.4997 0.4997 -0.8662 -10771.623 1022.5296)">
			<stop  offset="4.310340e-03" style="stop-color:#474747"/>
			<stop  offset="0.1" style="stop-color:#383838"/>
			<stop  offset="0.302" style="stop-color:#202020"/>
			<stop  offset="0.5134" style="stop-color:#0E0E0E"/>
			<stop  offset="0.7384" style="stop-color:#030303"/>
			<stop  offset="1" style="stop-color:#000000"/>
		</linearGradient>
		<polygon class="st24" points="244.14,418.95 344.07,170.99 419.52,189.01 		"/>
		
			<linearGradient id="SVGID_25_" gradientUnits="userSpaceOnUse" x1="-11168.6035" y1="2072.0557" x2="-11101.2188" y2="2072.0557" gradientTransform="matrix(-0.9599 0.2802 -0.2802 -0.9599 -9733.0479 5264.8892)">
			<stop  offset="4.310340e-03" style="stop-color:#474747"/>
			<stop  offset="0.1" style="stop-color:#383838"/>
			<stop  offset="0.302" style="stop-color:#202020"/>
			<stop  offset="0.5134" style="stop-color:#0E0E0E"/>
			<stop  offset="0.7384" style="stop-color:#030303"/>
			<stop  offset="1" style="stop-color:#000000"/>
		</linearGradient>
		<polygon class="st25" points="344.07,170.99 364.07,112.89 419.52,189.01 		"/>
		
			<linearGradient id="SVGID_26_" gradientUnits="userSpaceOnUse" x1="-3568.8682" y1="-3593.0295" x2="-3507.6978" y2="-3593.0295" gradientTransform="matrix(0.5827 0.8127 -0.8127 0.5827 -622.3629 5080.6714)">
			<stop  offset="4.310340e-03" style="stop-color:#474747"/>
			<stop  offset="0.1" style="stop-color:#383838"/>
			<stop  offset="0.302" style="stop-color:#202020"/>
			<stop  offset="0.5134" style="stop-color:#0E0E0E"/>
			<stop  offset="0.7384" style="stop-color:#030303"/>
			<stop  offset="1" style="stop-color:#000000"/>
		</linearGradient>
		<polygon class="st26" points="191.95,168.71 207.83,93.97 309.92,96.04 		"/>
		
			<linearGradient id="SVGID_27_" gradientUnits="userSpaceOnUse" x1="-358.7573" y1="4722.8696" x2="-206.2877" y2="4722.8696" gradientTransform="matrix(0.6772 -0.7358 0.7358 0.6772 -3125.0947 -3253.8796)">
			<stop  offset="4.310340e-03" style="stop-color:#474747"/>
			<stop  offset="0.1" style="stop-color:#383838"/>
			<stop  offset="0.302" style="stop-color:#202020"/>
			<stop  offset="0.5134" style="stop-color:#0E0E0E"/>
			<stop  offset="0.7384" style="stop-color:#030303"/>
			<stop  offset="1" style="stop-color:#000000"/>
		</linearGradient>
		<polygon class="st27" points="80.86,184.33 207.83,93.97 191.95,168.71 		"/>
		
			<linearGradient id="SVGID_28_" gradientUnits="userSpaceOnUse" x1="-2276.1768" y1="6779.3647" x2="-2010.3463" y2="6779.3647" gradientTransform="matrix(0.2734 -0.9619 0.9619 0.2734 -5698.0493 -3636.3254)">
			<stop  offset="4.310340e-03" style="stop-color:#474747"/>
			<stop  offset="0.1" style="stop-color:#383838"/>
			<stop  offset="0.302" style="stop-color:#202020"/>
			<stop  offset="0.5134" style="stop-color:#0E0E0E"/>
			<stop  offset="0.7384" style="stop-color:#030303"/>
			<stop  offset="1" style="stop-color:#000000"/>
		</linearGradient>
		<polygon class="st28" points="244.14,418.95 191.95,168.71 344.07,170.99 		"/>
		
			<linearGradient id="SVGID_29_" gradientUnits="userSpaceOnUse" x1="-10078.0479" y1="5165.4873" x2="-9852.5166" y2="5165.4873" gradientTransform="matrix(-0.955 -0.2967 0.2967 -0.955 -10879.8408 2255.1194)">
			<stop  offset="4.310340e-03" style="stop-color:#474747"/>
			<stop  offset="0.1" style="stop-color:#383838"/>
			<stop  offset="0.302" style="stop-color:#202020"/>
			<stop  offset="0.5134" style="stop-color:#0E0E0E"/>
			<stop  offset="0.7384" style="stop-color:#030303"/>
			<stop  offset="1" style="stop-color:#000000"/>
		</linearGradient>
		<polygon class="st29" points="244.14,418.95 80.86,184.33 191.95,168.71 		"/>
		
			<linearGradient id="SVGID_30_" gradientUnits="userSpaceOnUse" x1="-10672.3496" y1="4229.4209" x2="-10520.6641" y2="4229.4209" gradientTransform="matrix(-0.9959 -0.091 0.091 -0.9959 -10666.6758 3382.0278)">
			<stop  offset="4.310340e-03" style="stop-color:#474747"/>
			<stop  offset="0.1" style="stop-color:#383838"/>
			<stop  offset="0.302" style="stop-color:#202020"/>
			<stop  offset="0.5134" style="stop-color:#0E0E0E"/>
			<stop  offset="0.7384" style="stop-color:#030303"/>
			<stop  offset="1" style="stop-color:#000000"/>
		</linearGradient>
		<polygon class="st30" points="191.95,168.71 309.92,96.04 344.07,170.99 		"/>
	</g>
	<g>
		<polygon class="st31" points="280.72,218.82 184.02,141.56 162.68,217.45 		"/>
		<polygon class="st32" points="280.72,218.82 269.55,143.01 184.02,141.56 		"/>
		<polygon class="st33" points="384.1,208.3 269.55,143.01 280.72,218.82 		"/>
		<polygon class="st34" points="269.55,143.01 342.75,132.04 184.02,141.56 		"/>
		<polygon class="st35" points="384.1,208.3 342.75,132.04 269.55,143.01 		"/>
		<polygon class="st36" points="184.02,141.56 342.75,132.04 125.96,128.18 		"/>
		<polygon class="st37" points="162.68,217.45 184.02,141.56 125.96,128.18 		"/>
		<polygon class="st38" points="162.68,217.45 125.96,128.18 79.07,204.51 		"/>
		<polygon class="st39" points="244.14,418.95 162.68,217.45 79.07,204.51 		"/>
		<polygon class="st40" points="244.14,418.95 280.72,218.82 162.68,217.45 		"/>
		<polygon class="st31" points="244.14,418.95 384.1,208.3 280.72,218.82 		"/>
		<polygon class="st41" points="125.96,128.18 342.75,132.04 130.83,108.42 		"/>
		<polygon class="st42" points="79.07,204.51 125.96,128.18 130.83,108.42 		"/>
		<polygon class="st38" points="244.14,418.95 419.52,189.01 384.1,208.3 		"/>
		<polygon class="st43" points="419.52,189.01 342.75,132.04 384.1,208.3 		"/>
		<polygon class="st44" points="419.52,189.01 364.07,112.89 342.75,132.04 		"/>
		<polygon class="st45" points="79.07,204.51 130.83,108.42 80.86,184.33 		"/>
		<polygon class="st46" points="244.14,418.95 79.07,204.51 80.86,184.33 		"/>
		<polygon class="st47" points="309.92,96.04 342.75,132.04 364.07,112.89 		"/>
		<polygon class="st31" points="207.83,93.97 342.75,132.04 309.92,96.04 		"/>
		<polygon class="st48" points="130.83,108.42 342.75,132.04 207.83,93.97 		"/>
		<polygon class="st46" points="80.86,184.33 130.83,108.42 207.83,93.97 		"/>
		<polygon class="st38" points="344.07,170.99 309.92,96.04 364.07,112.89 		"/>
		<polygon class="st49" points="244.14,418.95 344.07,170.99 419.52,189.01 		"/>
		<polygon class="st40" points="344.07,170.99 364.07,112.89 419.52,189.01 		"/>
		<polygon class="st45" points="191.95,168.71 207.83,93.97 309.92,96.04 		"/>
		<polygon class="st50" points="80.86,184.33 207.83,93.97 191.95,168.71 		"/>
		<polygon class="st51" points="244.14,418.95 191.95,168.71 344.07,170.99 		"/>
		<polygon class="st35" points="244.14,418.95 80.86,184.33 191.95,168.71 		"/>
		<polygon class="st52" points="191.95,168.71 309.92,96.04 344.07,170.99 		"/>
	</g>
	<polygon class="st53" points="213.08,370.13 265.58,328.94 260.94,254.59 211.26,296.99 	"/>
	<polygon class="st54" points="133.07,185.91 187.33,215.18 188.42,157.57 137.11,127.67 	"/>
	<polygon class="st55" points="311.74,236.57 358.53,199.69 352,138.31 307.95,176.09 	"/>
	<polygon class="st56" points="166.76,298.4 219.35,331.35 260.89,292.06 207.3,255.75 	"/>
	<polygon class="st57" points="157.98,288.74 237.82,323.5 243.94,236.37 169.38,199.92 	"/>
	<polygon class="st58" points="199.03,178.69 155.71,223.13 162.08,156.57 202.92,111.2 	"/>
	<polygon class="st59" points="178.91,221.38 251.82,271.72 256.22,350.41 178.05,300.48 	"/>
	<polygon class="st60" points="300.47,292.7 242.25,346.34 251.51,250.98 306.19,195.2 	"/>
	<polygon class="st61" points="279.92,101.24 358.56,151.34 369.62,250.64 285.53,202.1 	"/>
	<polygon class="st62" points="201.15,333.8 218.24,306.33 204.02,279.87 185.56,307.64 	"/>
	<polygon class="st63" points="157.48,201.68 165.12,182.31 152.07,179.94 144.35,198.22 	"/>
	<polygon class="st64" points="245.64,319.88 260.92,290.38 231.35,286.61 215.76,314.36 	"/>
	<polygon class="st55" points="164,224.38 148.88,194.27 118.52,193.56 134.25,222.14 	"/>
	<polygon class="st65" points="223.48,279.1 214.55,255.28 191.51,253.21 201.03,275.87 	"/>
	<polygon class="st54" points="186.08,229.27 193.06,213.38 187.07,195.25 179.46,211.21 	"/>
	<polygon class="st66" points="193.89,269.46 213.82,233.33 177.9,227.09 157.66,260.93 	"/>
	<polygon class="st67" points="247.21,132.04 234.49,103.11 210.98,104.12 224.14,131.42 	"/>
	<polygon class="st68" points="206.77,318.4 217.75,292.82 193.2,289.4 181.85,313.37 	"/>
	<polygon class="st69" points="158.85,198.17 142.78,162.52 104.36,161.63 121.41,195.36 	"/>
	<polygon class="st57" points="220.41,287.47 208.65,255.96 171.11,253.02 184.05,282.93 	"/>
	<polygon class="st70" points="140.91,173.79 151.96,152.33 142.3,129.81 130.21,151.46 	"/>
	<polygon class="st66" points="137.7,267.44 142.4,251.31 145.53,266.1 141.21,282 	"/>
	<polygon class="st62" points="176.81,196.76 168.3,170.45 149.58,171.43 158.55,196.17 	"/>
	<polygon class="st71" points="203.61,239.86 192.01,206.08 157.73,205.18 170.41,237.05 	"/>
	<polygon class="st70" points="81.67,192.83 99.81,166.07 123.25,166.55 105.02,195.11 	"/>
	<polygon class="st72" points="157.01,238.05 162.43,218.58 166.12,234.62 161.18,253.72 	"/>
	<polygon class="st73" points="173.4,135.5 196.76,104.41 233.89,103.01 210.74,136.15 	"/>
	<polygon class="st74" points="206.95,256.28 213.15,238.46 217.33,256.48 211.68,274.12 	"/>
	<polygon class="st59" points="273.11,179.45 254.65,132.4 204.45,134.27 224.49,178.34 	"/>
	<polygon class="st75" points="100.88,208.09 122.51,177.11 154.11,177.7 132.53,210.92 	"/>
	<polygon class="st76" points="158.17,235.12 173.85,202.2 184.7,232.09 170.48,264.48 	"/>
	<polygon class="st77" points="113.64,158.86 142.29,118.33 194.6,116.38 166.57,159.77 	"/>
	<polygon class="st60" points="179.88,235.39 196.71,266.76 162.46,256.48 144.68,226.69 	"/>
	<polygon class="st78" points="153.3,256.25 171.83,220.97 184.97,249.39 168.26,283.89 	"/>
	<polygon class="st56" points="101.34,182.16 118.23,149.57 130.11,182.58 114.9,214.79 	"/>
	<polygon class="st79" points="205.69,321.9 227.77,285.74 243.66,318.2 223.91,353.69 	"/>
	<polygon class="st80" points="188.94,234.34 205.42,203.69 230.61,206.42 214.25,239.71 	"/>
	<polygon class="st62" points="328.93,199.79 346.02,172.32 331.79,145.86 313.34,173.63 	"/>
	<polygon class="st53" points="296.94,162.63 281,130.14 246.44,127.47 263.11,158.46 	"/>
	<polygon class="st56" points="217.35,210.16 234.82,182.15 220.01,157.36 201.09,185.77 	"/>
	<polygon class="st54" points="208.64,192.33 215.87,174.75 204.36,171.84 197.08,188.37 	"/>
	<polygon class="st64" points="373.42,185.87 388.7,156.36 359.12,152.59 343.54,180.35 	"/>
	<polygon class="st65" points="351.25,145.08 342.33,121.27 319.29,119.19 328.81,141.85 	"/>
	<polygon class="st81" points="186.55,219.31 193.82,200.36 187.55,185.07 179.64,204.36 	"/>
	<polygon class="st73" points="211.32,166.73 216.51,149.48 208.86,145.9 203.65,162.05 	"/>
	<polygon class="st56" points="240.65,172.65 245.61,158.82 241.34,145.55 235.95,159.54 	"/>
	<polygon class="st68" points="334.55,184.39 345.53,158.81 320.98,155.39 309.63,179.35 	"/>
	<polygon class="st57" points="348.19,153.45 336.43,121.94 298.89,119.01 311.83,148.92 	"/>
	<polygon class="st66" points="250.89,223.19 273.71,189.57 253.73,160.14 228.79,194.3 	"/>
	<polygon class="st82" points="192.06,235.21 205.21,257.64 184.33,249.73 170.87,228.2 	"/>
	<polygon class="st79" points="283.85,229.16 300.69,196.13 272.57,188.97 255.55,219.75 	"/>
	<polygon class="st83" points="347.55,254.24 356.51,228.63 337.86,224.01 328.65,247.89 	"/>
	<polygon class="st66" points="265.48,133.43 270.18,117.3 273.31,132.08 268.99,147.99 	"/>
	<polygon class="st84" points="164.07,198.84 180.29,223.7 156.88,216.74 140.39,193.04 	"/>
	<polygon class="st60" points="274.74,148.47 296.93,181.58 255.72,168.97 232.65,137.24 	"/>
	<polygon class="st57" points="230.76,185.82 244.61,152.81 217.93,145.33 203.76,175.93 	"/>
	<polygon class="st63" points="151.8,183.26 176.14,151.16 204.83,153.66 180.2,188.14 	"/>
	<polygon class="st58" points="226.74,155.76 245.23,183.86 214.03,175.37 194.95,148.64 	"/>
	<polygon class="st85" points="320.85,277.45 336.24,242.57 346.97,268.07 333,302.11 	"/>
	<polygon class="st59" points="227.08,169.95 239.8,146.08 256.74,148.06 243.96,173.84 	"/>
	<polygon class="st79" points="333.47,187.89 355.55,151.73 371.44,184.19 351.69,219.68 	"/>
	<polygon class="st63" points="383.43,231.29 391.07,211.92 378.02,209.55 370.3,227.83 	"/>
	<polygon class="st66" points="329.19,268.01 348.72,240.26 332.22,211.28 311.04,239.25 	"/>
	<polygon class="st73" points="309.49,330.35 314.68,313.1 307.03,309.52 301.82,325.66 	"/>
	<polygon class="st69" points="384.81,227.78 368.73,192.13 330.31,191.24 347.36,224.97 	"/>
	<polygon class="st70" points="366.86,203.4 377.91,181.93 368.25,159.42 356.16,181.07 	"/>
	<polygon class="st76" points="242.71,165.86 261.15,139.05 287.11,137.91 268.66,166.38 	"/>
	<polygon class="st70" points="307.62,222.43 325.76,195.68 349.2,196.15 330.97,224.72 	"/>
	<polygon class="st86" points="273.43,246.71 303.67,288.27 264.36,279.63 233.84,240.29 	"/>
	<polygon class="st63" points="249.97,346.88 274.32,314.78 303,317.28 278.37,351.76 	"/>
	<polygon class="st75" points="326.83,237.7 348.46,206.72 380.07,207.31 358.48,240.53 	"/>
	<polygon class="st87" points="285.54,239.07 309.31,276.25 273.23,267.93 248.91,232.83 	"/>
	<polygon class="st56" points="327.29,211.77 344.19,179.18 356.06,212.19 340.85,244.4 	"/>
	<polygon class="st61" points="289.3,255.49 309.9,221.81 344.46,222.5 324.16,258.8 	"/>
	<polygon class="st88" points="309.5,217.9 334.86,261.32 288.48,250.79 261.96,209.93 	"/>
	<polygon class="st63" points="228.19,290.51 235.83,271.14 222.78,268.77 215.06,287.05 	"/>
	<polygon class="st66" points="173.95,327.23 193.48,299.49 176.98,270.51 155.8,298.47 	"/>
	<polygon class="st55" points="234.71,313.21 219.59,283.1 189.23,282.39 204.95,310.97 	"/>
	<polygon class="st54" points="256.78,318.1 263.77,302.21 257.78,284.08 250.17,300.04 	"/>
	<polygon class="st66" points="264.6,358.29 284.52,322.16 248.61,315.93 228.37,349.76 	"/>
	<polygon class="st67" points="317.92,220.87 305.2,191.94 281.69,192.95 294.85,220.26 	"/>
	<polygon class="st69" points="229.56,287 213.49,251.35 175.07,250.46 192.12,284.19 	"/>
	<polygon class="st70" points="211.61,262.63 222.67,241.16 213.01,218.64 200.92,240.3 	"/>
	<polygon class="st66" points="208.41,356.27 213.11,340.14 216.23,354.93 211.92,370.83 	"/>
	<polygon class="st62" points="247.52,285.59 239.01,259.28 220.29,260.27 229.26,285 	"/>
	<polygon class="st71" points="274.32,328.7 262.72,294.91 228.44,294.01 241.12,325.88 	"/>
	<polygon class="st70" points="152.38,281.66 170.51,254.9 193.96,255.38 175.72,283.94 	"/>
	<polygon class="st72" points="227.72,326.89 233.14,307.42 236.83,323.45 231.89,342.55 	"/>
	<polygon class="st73" points="244.11,224.33 267.47,193.24 304.6,191.84 281.45,224.98 	"/>
	<polygon class="st74" points="277.66,345.11 283.85,327.29 288.04,345.32 282.38,362.95 	"/>
	<polygon class="st59" points="343.81,268.29 325.36,221.23 275.16,223.1 295.2,267.17 	"/>
	<polygon class="st75" points="171.59,296.92 193.22,265.94 224.82,266.53 203.24,299.75 	"/>
	<polygon class="st76" points="228.88,323.95 244.56,291.03 255.41,320.93 241.19,353.31 	"/>
	<polygon class="st89" points="243.76,211.35 263.77,177.55 277.5,215.7 259.37,249.32 	"/>
	<polygon class="st77" points="184.34,247.69 212.99,207.16 265.31,205.22 237.28,248.6 	"/>
	<polygon class="st60" points="250.58,324.23 267.42,355.59 233.16,345.31 215.39,315.53 	"/>
	<polygon class="st78" points="224.01,345.08 242.54,309.8 255.67,338.22 238.97,372.72 	"/>
	<polygon class="st56" points="172.05,270.99 188.94,238.41 200.82,271.41 185.61,303.62 	"/>
	<polygon class="st80" points="259.65,323.17 276.12,292.53 301.32,295.25 284.96,328.54 	"/>
	<polygon class="st90" points="309.92,96.04 207.83,93.97 130.83,108.42 80.86,184.33 79.07,204.51 244.14,418.95 419.52,189.01 
		364.07,112.89 	"/>
	<g>
		<polygon class="st91" points="280.72,218.82 184.02,141.56 162.68,217.45 		"/>
		<polygon class="st92" points="280.72,218.82 269.55,143.01 184.02,141.56 		"/>
		<polygon class="st93" points="384.1,208.3 269.55,143.01 280.72,218.82 		"/>
		<polygon class="st94" points="269.55,143.01 342.75,132.04 184.02,141.56 		"/>
		<polygon class="st95" points="384.1,208.3 342.75,132.04 269.55,143.01 		"/>
		<polygon class="st96" points="184.02,141.56 342.75,132.04 125.96,128.18 		"/>
		<polygon class="st97" points="162.68,217.45 184.02,141.56 125.96,128.18 		"/>
		<polygon class="st98" points="162.68,217.45 125.96,128.18 79.07,204.51 		"/>
		<polygon class="st99" points="244.14,418.95 162.68,217.45 79.07,204.51 		"/>
		<polygon class="st100" points="244.14,418.95 280.72,218.82 162.68,217.45 		"/>
		<polygon class="st101" points="244.14,418.95 384.1,208.3 280.72,218.82 		"/>
		<polygon class="st102" points="125.96,128.18 342.75,132.04 130.83,108.42 		"/>
		<polygon class="st103" points="79.07,204.51 125.96,128.18 130.83,108.42 		"/>
		<polygon class="st104" points="244.14,418.95 419.52,189.01 384.1,208.3 		"/>
		<polygon class="st105" points="419.52,189.01 342.75,132.04 384.1,208.3 		"/>
		<polygon class="st106" points="419.52,189.01 364.07,112.89 342.75,132.04 		"/>
		<polygon class="st107" points="79.07,204.51 130.83,108.42 80.86,184.33 		"/>
		<polygon class="st108" points="244.14,418.95 79.07,204.51 80.86,184.33 		"/>
		<polygon class="st109" points="309.92,96.04 342.75,132.04 364.07,112.89 		"/>
		<polygon class="st110" points="207.83,93.97 342.75,132.04 309.92,96.04 		"/>
		<polygon class="st111" points="130.83,108.42 342.75,132.04 207.83,93.97 		"/>
		<polygon class="st112" points="80.86,184.33 130.83,108.42 207.83,93.97 		"/>
		<polygon class="st113" points="344.07,170.99 309.92,96.04 364.07,112.89 		"/>
		<polygon class="st114" points="244.14,418.95 344.07,170.99 419.52,189.01 		"/>
		<polygon class="st115" points="344.07,170.99 364.07,112.89 419.52,189.01 		"/>
		<polygon class="st116" points="191.95,168.71 207.83,93.97 309.92,96.04 		"/>
		<polygon class="st117" points="80.86,184.33 207.83,93.97 191.95,168.71 		"/>
		<polygon class="st118" points="244.14,418.95 191.95,168.71 344.07,170.99 		"/>
		<polygon class="st119" points="244.14,418.95 80.86,184.33 191.95,168.71 		"/>
		<polygon class="st120" points="191.95,168.71 309.92,96.04 344.07,170.99 		"/>
	</g>
	<polygon class="st121" points="287.01,211.29 170.97,118.58 145.35,209.65 	"/>
	<polygon class="st122" points="287.01,211.29 273.6,120.32 170.97,118.58 	"/>
	<polygon class="st123" points="411.06,198.66 273.6,120.32 287.01,211.29 	"/>
	<polygon class="st124" points="273.6,120.32 361.44,107.16 170.97,118.58 	"/>
	<polygon class="st125" points="411.06,198.66 361.44,107.16 273.6,120.32 	"/>
</g>
</svg>
